<svg width="15" height="16" viewBox="0 0 15 16" fill="none" xmlns="http://www.w3.org/2000/svg">
<path d="M5.15625 3.13462V0.826923C5.15625 0.673914 5.20564 0.527171 5.29354 0.418977C5.38145 0.310783 5.50068 0.25 5.625 0.25C5.74932 0.25 5.86855 0.310783 5.95646 0.418977C6.04436 0.527171 6.09375 0.673914 6.09375 0.826923V3.13462C6.09375 3.28762 6.04436 3.43437 5.95646 3.54256C5.86855 3.65076 5.74932 3.71154 5.625 3.71154C5.50068 3.71154 5.38145 3.65076 5.29354 3.54256C5.20564 3.43437 5.15625 3.28762 5.15625 3.13462ZM7.5 3.71154C7.62432 3.71154 7.74355 3.65076 7.83146 3.54256C7.91936 3.43437 7.96875 3.28762 7.96875 3.13462V0.826923C7.96875 0.673914 7.91936 0.527171 7.83146 0.418977C7.74355 0.310783 7.62432 0.25 7.5 0.25C7.37568 0.25 7.25645 0.310783 7.16854 0.418977C7.08064 0.527171 7.03125 0.673914 7.03125 0.826923V3.13462C7.03125 3.28762 7.08064 3.43437 7.16854 3.54256C7.25645 3.65076 7.37568 3.71154 7.5 3.71154ZM9.375 3.71154C9.49932 3.71154 9.61855 3.65076 9.70646 3.54256C9.79436 3.43437 9.84375 3.28762 9.84375 3.13462V0.826923C9.84375 0.673914 9.79436 0.527171 9.70646 0.418977C9.61855 0.310783 9.49932 0.25 9.375 0.25C9.25068 0.25 9.13145 0.310783 9.04354 0.418977C8.95564 0.527171 8.90625 0.673914 8.90625 0.826923V3.13462C8.90625 3.28762 8.95564 3.43437 9.04354 3.54256C9.13145 3.65076 9.25068 3.71154 9.375 3.71154ZM14.8125 7.05769L13.125 8.61538V12.9423C13.125 13.5543 12.9275 14.1413 12.5758 14.5741C12.2242 15.0069 11.7473 15.25 11.25 15.25H3.75C3.25272 15.25 2.77581 15.0069 2.42418 14.5741C2.07255 14.1413 1.875 13.5543 1.875 12.9423V8.61538L0.187502 7.05769C0.0880457 6.96589 0.0222946 6.82921 0.00471309 6.67774C-0.0128684 6.52627 0.0191598 6.37241 0.0937519 6.25C0.168344 6.12759 0.27939 6.04667 0.402461 6.02503C0.525531 6.00339 0.650546 6.04281 0.750002 6.13462L1.875 7.17308V5.44231C1.875 5.2893 1.92439 5.14256 2.0123 5.03436C2.1002 4.92617 2.21943 4.86538 2.34375 4.86538H12.6562C12.7806 4.86538 12.8998 4.92617 12.9877 5.03436C13.0756 5.14256 13.125 5.2893 13.125 5.44231V7.17308L14.25 6.13462C14.3495 6.04281 14.4745 6.00339 14.5975 6.02503C14.7206 6.04667 14.8317 6.12759 14.9062 6.25C14.9808 6.37241 15.0129 6.52627 14.9953 6.67774C14.9777 6.82921 14.912 6.96589 14.8125 7.05769ZM12.1875 6.01923H2.8125V12.9423C2.8125 13.2483 2.91127 13.5418 3.08709 13.7582C3.2629 13.9746 3.50136 14.0962 3.75 14.0962H11.25C11.4986 14.0962 11.7371 13.9746 11.9129 13.7582C12.0887 13.5418 12.1875 13.2483 12.1875 12.9423V6.01923Z" fill="black"/>
</svg>
