<svg width="101" height="93" viewBox="0 0 101 93" fill="none" xmlns="http://www.w3.org/2000/svg">
<mask id="path-1-inside-1_651_705" fill="white">
<path d="M17.6163 57.6773H21.1395C21.1392 57.0463 20.939 56.4292 20.5635 55.9013C20.1881 55.3735 19.6536 54.958 19.0256 54.7056L17.6163 57.6773ZM83.3837 57.6773L81.9744 54.7056C81.3464 54.958 80.8119 55.3735 80.4364 55.9013C80.061 56.4292 79.8608 57.0463 79.8605 57.6773H83.3837ZM68.1163 24.8721C68.1163 25.7325 68.4875 26.5577 69.1482 27.1661C69.809 27.7745 70.7051 28.1163 71.6395 28.1163C72.574 28.1163 73.4701 27.7745 74.1309 27.1661C74.7916 26.5577 75.1628 25.7325 75.1628 24.8721H68.1163ZM25.8372 24.8721C25.8372 25.7325 26.2084 26.5577 26.8691 27.1661C27.5299 27.7745 28.426 28.1163 29.3605 28.1163C30.2949 28.1163 31.191 27.7745 31.8518 27.1661C32.5125 26.5577 32.8837 25.7325 32.8837 24.8721H25.8372ZM27.0116 12.9767C19.8477 12.9767 12.9772 15.5972 7.91152 20.2616C2.84586 24.926 4.40244e-07 31.2523 4.40244e-07 37.8488H7.04651C7.04651 32.9732 9.14997 28.2972 12.8942 24.8496C16.6383 21.402 21.7165 19.4651 27.0116 19.4651V12.9767ZM73.9884 19.4651C79.2834 19.4651 84.3616 21.402 88.1058 24.8496C91.85 28.2972 93.9535 32.9732 93.9535 37.8488H101C101 31.2523 98.1541 24.926 93.0885 20.2616C88.0228 15.5972 81.1523 12.9767 73.9884 12.9767V19.4651ZM64.593 86.5116H36.407V93H64.593V86.5116ZM36.407 86.5116C31.8784 86.5116 28.8343 86.503 26.5653 86.2218C24.3997 85.9536 23.4696 85.4908 22.8589 84.9241L17.8793 89.5179C20.0168 91.486 22.6804 92.2863 25.6305 92.6539C28.4773 93.0086 32.0757 93 36.407 93V86.5116ZM14.093 72.4535C14.093 76.4417 14.0836 79.7551 14.4688 82.3764C14.8634 85.0928 15.7372 87.5454 17.8746 89.5136L22.8589 84.9285C22.2482 84.3661 21.7455 83.5097 21.4496 81.5112C21.1489 79.4263 21.1395 76.6233 21.1395 72.4535H14.093ZM79.8605 72.4535C79.8605 76.6233 79.8511 79.4263 79.5457 81.5156C79.2545 83.5097 78.7518 84.3661 78.1364 84.9285L83.1253 89.5136C85.2628 87.5454 86.1319 85.0928 86.5312 82.3764C86.9164 79.7551 86.907 76.4417 86.907 72.4535H79.8605ZM64.593 93C68.9243 93 72.5227 93.0086 75.3695 92.6539C78.3196 92.2906 80.9879 91.486 83.1253 89.5136L78.1411 84.9285C77.5304 85.4908 76.6003 85.9536 74.4299 86.2261C72.1657 86.503 69.1216 86.5116 64.593 86.5116V93ZM27.0116 19.4651C28.0138 19.4651 28.9972 19.5314 29.9618 19.6641L30.9906 13.2449C29.6728 13.0691 28.3432 12.9795 27.0116 12.9767V19.4651ZM50.5 8.4013e-07C45.3453 -0.00128988 40.3196 1.48467 36.1294 4.24906C31.9391 7.01345 28.7949 10.9173 27.1385 15.412L33.8092 17.497C34.9925 14.2859 37.239 11.497 40.2329 9.52234C43.2267 7.54772 46.8173 6.48667 50.5 6.48837V8.4013e-07ZM27.1385 15.412C26.2787 17.7636 25.8392 20.2281 25.8372 22.7093H32.8837C32.8837 20.8796 33.2126 19.1277 33.8139 17.497L27.1385 15.412ZM73.9884 12.9767C72.6386 12.9767 71.3123 13.0661 70.0094 13.2449L71.0429 19.6641C72.0175 19.5267 73.0024 19.4602 73.9884 19.4651V12.9767ZM50.5 6.48837C54.1818 6.48758 57.7714 7.54904 60.7643 9.5236C63.7572 11.4982 66.003 14.2866 67.1861 17.497L73.8568 15.412C72.2007 10.918 69.0572 7.01465 64.8678 4.25032C60.6785 1.48599 55.6539 -0.000385784 50.5 8.4013e-07V6.48837ZM67.1861 17.497C67.7874 19.1277 68.1163 20.8796 68.1163 22.7093H75.1628C75.1628 20.1615 74.7024 17.7089 73.8568 15.412L67.1861 17.497ZM21.1395 72.4535V57.6773H14.093V72.4535H21.1395ZM19.0256 54.7056C15.4638 53.2743 12.4332 50.9169 10.3053 47.9226C8.17741 44.9283 7.04486 41.4272 7.04651 37.8488H4.40244e-07C-0.000948421 42.6891 1.53194 47.4245 4.41074 51.4744C7.28955 55.5244 11.3892 58.7128 16.207 60.649L19.0256 54.7056ZM79.8605 57.6773V72.4535H86.907V57.6773H79.8605ZM93.9535 37.8488C93.9551 41.4272 92.8226 44.9283 90.6947 47.9226C88.5668 50.9169 85.5362 53.2743 81.9744 54.7056L84.793 60.649C89.6108 58.7128 93.7104 55.5244 96.5892 51.4744C99.4681 47.4245 101.001 42.6891 101 37.8488H93.9535ZM68.1163 22.7093V24.8721H75.1628V22.7093H68.1163ZM25.8372 22.7093V24.8721H32.8837V22.7093H25.8372Z"/>
</mask>
<path d="M17.6163 57.6773H21.1395C21.1392 57.0463 20.939 56.4292 20.5635 55.9013C20.1881 55.3735 19.6536 54.958 19.0256 54.7056L17.6163 57.6773ZM83.3837 57.6773L81.9744 54.7056C81.3464 54.958 80.8119 55.3735 80.4364 55.9013C80.061 56.4292 79.8608 57.0463 79.8605 57.6773H83.3837ZM68.1163 24.8721C68.1163 25.7325 68.4875 26.5577 69.1482 27.1661C69.809 27.7745 70.7051 28.1163 71.6395 28.1163C72.574 28.1163 73.4701 27.7745 74.1309 27.1661C74.7916 26.5577 75.1628 25.7325 75.1628 24.8721H68.1163ZM25.8372 24.8721C25.8372 25.7325 26.2084 26.5577 26.8691 27.1661C27.5299 27.7745 28.426 28.1163 29.3605 28.1163C30.2949 28.1163 31.191 27.7745 31.8518 27.1661C32.5125 26.5577 32.8837 25.7325 32.8837 24.8721H25.8372ZM27.0116 12.9767C19.8477 12.9767 12.9772 15.5972 7.91152 20.2616C2.84586 24.926 4.40244e-07 31.2523 4.40244e-07 37.8488H7.04651C7.04651 32.9732 9.14997 28.2972 12.8942 24.8496C16.6383 21.402 21.7165 19.4651 27.0116 19.4651V12.9767ZM73.9884 19.4651C79.2834 19.4651 84.3616 21.402 88.1058 24.8496C91.85 28.2972 93.9535 32.9732 93.9535 37.8488H101C101 31.2523 98.1541 24.926 93.0885 20.2616C88.0228 15.5972 81.1523 12.9767 73.9884 12.9767V19.4651ZM64.593 86.5116H36.407V93H64.593V86.5116ZM36.407 86.5116C31.8784 86.5116 28.8343 86.503 26.5653 86.2218C24.3997 85.9536 23.4696 85.4908 22.8589 84.9241L17.8793 89.5179C20.0168 91.486 22.6804 92.2863 25.6305 92.6539C28.4773 93.0086 32.0757 93 36.407 93V86.5116ZM14.093 72.4535C14.093 76.4417 14.0836 79.7551 14.4688 82.3764C14.8634 85.0928 15.7372 87.5454 17.8746 89.5136L22.8589 84.9285C22.2482 84.3661 21.7455 83.5097 21.4496 81.5112C21.1489 79.4263 21.1395 76.6233 21.1395 72.4535H14.093ZM79.8605 72.4535C79.8605 76.6233 79.8511 79.4263 79.5457 81.5156C79.2545 83.5097 78.7518 84.3661 78.1364 84.9285L83.1253 89.5136C85.2628 87.5454 86.1319 85.0928 86.5312 82.3764C86.9164 79.7551 86.907 76.4417 86.907 72.4535H79.8605ZM64.593 93C68.9243 93 72.5227 93.0086 75.3695 92.6539C78.3196 92.2906 80.9879 91.486 83.1253 89.5136L78.1411 84.9285C77.5304 85.4908 76.6003 85.9536 74.4299 86.2261C72.1657 86.503 69.1216 86.5116 64.593 86.5116V93ZM27.0116 19.4651C28.0138 19.4651 28.9972 19.5314 29.9618 19.6641L30.9906 13.2449C29.6728 13.0691 28.3432 12.9795 27.0116 12.9767V19.4651ZM50.5 8.4013e-07C45.3453 -0.00128988 40.3196 1.48467 36.1294 4.24906C31.9391 7.01345 28.7949 10.9173 27.1385 15.412L33.8092 17.497C34.9925 14.2859 37.239 11.497 40.2329 9.52234C43.2267 7.54772 46.8173 6.48667 50.5 6.48837V8.4013e-07ZM27.1385 15.412C26.2787 17.7636 25.8392 20.2281 25.8372 22.7093H32.8837C32.8837 20.8796 33.2126 19.1277 33.8139 17.497L27.1385 15.412ZM73.9884 12.9767C72.6386 12.9767 71.3123 13.0661 70.0094 13.2449L71.0429 19.6641C72.0175 19.5267 73.0024 19.4602 73.9884 19.4651V12.9767ZM50.5 6.48837C54.1818 6.48758 57.7714 7.54904 60.7643 9.5236C63.7572 11.4982 66.003 14.2866 67.1861 17.497L73.8568 15.412C72.2007 10.918 69.0572 7.01465 64.8678 4.25032C60.6785 1.48599 55.6539 -0.000385784 50.5 8.4013e-07V6.48837ZM67.1861 17.497C67.7874 19.1277 68.1163 20.8796 68.1163 22.7093H75.1628C75.1628 20.1615 74.7024 17.7089 73.8568 15.412L67.1861 17.497ZM21.1395 72.4535V57.6773H14.093V72.4535H21.1395ZM19.0256 54.7056C15.4638 53.2743 12.4332 50.9169 10.3053 47.9226C8.17741 44.9283 7.04486 41.4272 7.04651 37.8488H4.40244e-07C-0.000948421 42.6891 1.53194 47.4245 4.41074 51.4744C7.28955 55.5244 11.3892 58.7128 16.207 60.649L19.0256 54.7056ZM79.8605 57.6773V72.4535H86.907V57.6773H79.8605ZM93.9535 37.8488C93.9551 41.4272 92.8226 44.9283 90.6947 47.9226C88.5668 50.9169 85.5362 53.2743 81.9744 54.7056L84.793 60.649C89.6108 58.7128 93.7104 55.5244 96.5892 51.4744C99.4681 47.4245 101.001 42.6891 101 37.8488H93.9535ZM68.1163 22.7093V24.8721H75.1628V22.7093H68.1163ZM25.8372 22.7093V24.8721H32.8837V22.7093H25.8372Z" fill="#CBEAD2"/>
<path d="M83.3837 73.9535H86.907V70.9535H83.3837V73.9535ZM75.1628 23.3721H68.1163V26.3721H75.1628V23.3721ZM32.8837 23.3721H25.8372V26.3721H32.8837V23.3721ZM4.40244e-07 39.3488H7.04651V36.3488H4.40244e-07V39.3488ZM28.5116 19.4651V12.9767H25.5116V19.4651H28.5116ZM93.9535 39.3488H101V36.3488H93.9535V39.3488ZM72.4884 12.9767V19.4651H75.4884V12.9767H72.4884ZM34.907 86.5116V93H37.907V86.5116H34.907ZM66.093 93V86.5116H63.093V93H66.093ZM21.1395 70.9535H14.093V73.9535H21.1395V70.9535ZM86.907 70.9535H79.8605V73.9535H86.907V70.9535ZM52 6.48837V8.4013e-07H49V6.48837H52ZM25.8372 24.2093H32.8837V21.2093H25.8372V24.2093ZM67.6336 18.9287L74.3043 16.8437L73.4094 13.9803L66.7387 16.0653L67.6336 18.9287ZM68.1163 24.2093H75.1628V21.2093H68.1163V24.2093ZM17.6163 57.6773L14.9057 56.3918L12.8733 60.6773H17.6163V57.6773ZM21.1395 57.6773H24.1395V57.6756L21.1395 57.6773ZM83.3837 57.6773V60.6773H88.1267L86.0943 56.3918L83.3837 57.6773ZM79.8605 57.6773L76.8605 57.6756V57.6773H79.8605ZM25.8372 24.8721H22.8372H25.8372ZM27.0116 12.9767L27.0178 9.97674H27.0116V12.9767ZM4.40244e-07 37.8488L3 37.8494V37.8488H4.40244e-07ZM7.04651 37.8488L10.0465 37.8502V37.8488H7.04651ZM27.0116 19.4651V16.4651V19.4651ZM73.9884 19.4651L73.9734 22.4651L73.9809 22.4651H73.9884V19.4651ZM93.9535 37.8488H90.9535V37.8502L93.9535 37.8488ZM101 37.8488H98V37.8494L101 37.8488ZM73.9884 12.9767V9.97674V12.9767ZM26.5653 86.2218L26.9343 83.2446L26.934 83.2445L26.5653 86.2218ZM22.8589 84.9241L24.8994 82.725L22.8648 80.8371L20.8247 82.7191L22.8589 84.9241ZM17.8793 89.5179L15.8452 87.3129L13.4527 89.52L15.8472 91.7248L17.8793 89.5179ZM25.6305 92.6539L25.2595 95.6309L25.2596 95.6309L25.6305 92.6539ZM14.4688 82.3764L17.4377 81.9451L17.437 81.9402L14.4688 82.3764ZM17.8746 89.5136L15.8425 91.7205L17.8737 93.5908L19.9057 91.7214L17.8746 89.5136ZM22.8589 84.9285L24.89 87.1363L27.2889 84.9295L24.891 82.7215L22.8589 84.9285ZM21.4496 81.5112L18.4803 81.9394L18.4819 81.9507L21.4496 81.5112ZM79.5457 81.5156L76.5773 81.0817L76.5772 81.082L79.5457 81.5156ZM78.1364 84.9285L76.1127 82.7138L73.6961 84.9221L76.1064 87.1373L78.1364 84.9285ZM86.5312 82.3764L89.4993 82.8127L89.4993 82.8125L86.5312 82.3764ZM75.3695 92.6539L75.0028 89.6764L74.9986 89.677L75.3695 92.6539ZM78.1411 84.9285L80.1722 82.7206L78.1402 80.8513L76.109 82.7215L78.1411 84.9285ZM74.4299 86.2261L74.794 89.204L74.8037 89.2028L74.4299 86.2261ZM29.9618 19.6641L29.553 22.6361L32.4597 23.0358L32.924 20.1388L29.9618 19.6641ZM30.9906 13.2449L33.9528 13.7197L34.4401 10.6786L31.3873 10.2713L30.9906 13.2449ZM50.5 8.4013e-07L50.4992 3L50.5002 3L50.5 8.4013e-07ZM27.1385 15.412L24.3235 14.3747L24.3209 14.3819L27.1385 15.412ZM33.8092 17.497L32.9142 20.3604L35.6375 21.2115L36.6241 18.5343L33.8092 17.497ZM50.5 6.48837L50.4986 9.48837H50.5006L50.5 6.48837ZM25.8372 22.7093L22.8372 22.7068V22.7093H25.8372ZM33.8139 17.497L36.6286 18.5349L37.7203 15.5742L34.7082 14.6334L33.8139 17.497ZM70.0094 13.2449L69.6016 10.2728L66.5595 10.6903L67.0476 13.7218L70.0094 13.2449ZM71.0429 19.6641L68.0811 20.1409L68.5487 23.0453L71.4616 22.6347L71.0429 19.6641ZM67.1861 17.497L64.3712 18.5343L64.3714 18.5349L67.1861 17.497ZM73.8568 15.412L76.6721 14.3756L76.6718 14.3747L73.8568 15.412ZM14.093 57.6773V54.6773H11.093V57.6773H14.093ZM16.207 60.649L15.0883 63.4326L17.7079 64.4853L18.9176 61.9345L16.207 60.649ZM86.907 57.6773H89.907V54.6773H86.907V57.6773ZM84.793 60.649L82.0824 61.9345L83.2921 64.4853L85.9117 63.4326L84.793 60.649ZM17.6163 60.6773H21.1395V54.6773H17.6163V60.6773ZM24.1395 57.6756C24.1388 56.4045 23.7343 55.1832 23.0081 54.1624L18.119 57.6403C18.1322 57.659 18.137 57.6715 18.1385 57.6762C18.14 57.6807 18.1395 57.6812 18.1395 57.679L24.1395 57.6756ZM23.0081 54.1624C22.2844 53.145 21.2799 52.3784 20.1442 51.922L17.9069 57.4893C18.0273 57.5376 18.0918 57.6021 18.119 57.6403L23.0081 54.1624ZM16.315 53.4201L14.9057 56.3918L20.3269 58.9628L21.7362 55.9911L16.315 53.4201ZM86.0943 56.3918L84.685 53.4201L79.2638 55.9911L80.6731 58.9628L86.0943 56.3918ZM80.8558 51.922C79.7201 52.3784 78.7156 53.1449 77.9919 54.1624L82.881 57.6403C82.9082 57.6021 82.9727 57.5376 83.0931 57.4893L80.8558 51.922ZM77.9919 54.1624C77.2657 55.1832 76.8612 56.4045 76.8605 57.6756L82.8605 57.679C82.8605 57.6812 82.86 57.6807 82.8615 57.6762C82.863 57.6715 82.8678 57.659 82.881 57.6403L77.9919 54.1624ZM79.8605 60.6773H83.3837V54.6773H79.8605V60.6773ZM65.1163 24.8721C65.1163 26.6118 65.8691 28.2247 67.1161 29.373L71.1803 24.9592C71.1417 24.9236 71.126 24.8954 71.1204 24.8828C71.115 24.8709 71.1163 24.8682 71.1163 24.8721H65.1163ZM67.1161 29.373C68.3548 30.5136 69.9857 31.1163 71.6395 31.1163V25.1163C71.4245 25.1163 71.2631 25.0353 71.1803 24.9592L67.1161 29.373ZM71.6395 31.1163C73.2934 31.1163 74.9242 30.5136 76.163 29.373L72.0987 24.9592C72.016 25.0353 71.8545 25.1163 71.6395 25.1163V31.1163ZM76.163 29.373C77.41 28.2247 78.1628 26.6118 78.1628 24.8721H72.1628C72.1628 24.8682 72.1641 24.8709 72.1587 24.8828C72.153 24.8954 72.1373 24.9236 72.0987 24.9592L76.163 29.373ZM22.8372 24.8721C22.8372 26.6118 23.59 28.2247 24.837 29.373L28.9013 24.9592C28.8627 24.9236 28.847 24.8954 28.8413 24.8828C28.8359 24.8709 28.8372 24.8682 28.8372 24.8721H22.8372ZM24.837 29.373C26.0758 30.5136 27.7066 31.1163 29.3605 31.1163V25.1163C29.1455 25.1163 28.984 25.0353 28.9013 24.9592L24.837 29.373ZM29.3605 31.1163C31.0143 31.1163 32.6452 30.5136 33.8839 29.373L29.8197 24.9592C29.7369 25.0353 29.5755 25.1163 29.3605 25.1163V31.1163ZM33.8839 29.373C35.1309 28.2247 35.8837 26.6118 35.8837 24.8721H29.8837C29.8837 24.8682 29.885 24.8709 29.8796 24.8828C29.874 24.8954 29.8582 24.9236 29.8197 24.9592L33.8839 29.373ZM27.0116 9.97674C19.1283 9.97674 11.5231 12.858 5.87941 18.0547L9.94364 22.4685C14.4313 18.3363 20.5671 15.9767 27.0116 15.9767V9.97674ZM5.87941 18.0547C0.227436 23.259 -3 30.3731 -3 37.8488H3C3 32.1316 5.46428 26.5931 9.94364 22.4685L5.87941 18.0547ZM10.0465 37.8488C10.0465 33.8524 11.7684 29.9643 14.9263 27.0565L10.862 22.6427C6.53155 26.6301 4.04651 32.0939 4.04651 37.8488H10.0465ZM14.9263 27.0565C18.0925 24.1411 22.436 22.4651 27.0116 22.4651V16.4651C20.9971 16.4651 15.1842 18.6628 10.862 22.6427L14.9263 27.0565ZM73.9884 22.4651C78.564 22.4651 82.9075 24.1411 86.0737 27.0565L90.138 22.6427C85.8158 18.6628 80.0029 16.4651 73.9884 16.4651V22.4651ZM86.0737 27.0565C89.2316 29.9643 90.9535 33.8524 90.9535 37.8488H96.9535C96.9535 32.0939 94.4684 26.6301 90.138 22.6427L86.0737 27.0565ZM104 37.8488C104 30.3731 100.773 23.259 95.1206 18.0547L91.0564 22.4685C95.5357 26.5931 98 32.1316 98 37.8488H104ZM95.1206 18.0547C89.4769 12.858 81.8717 9.97674 73.9884 9.97674V15.9767C80.4329 15.9767 86.5687 18.3363 91.0564 22.4685L95.1206 18.0547ZM64.593 83.5116H36.407V89.5116H64.593V83.5116ZM36.407 96H64.593V90H36.407V96ZM36.407 83.5116C31.7995 83.5116 28.9755 83.4975 26.9343 83.2446L26.1964 89.199C28.6931 89.5084 31.9574 89.5116 36.407 89.5116V83.5116ZM26.934 83.2445C25.9909 83.1278 25.4723 82.986 25.1939 82.8803C24.96 82.7914 24.9097 82.7345 24.8994 82.725L20.8184 87.1233C22.0895 88.3027 23.7431 88.8952 26.1967 89.1991L26.934 83.2445ZM20.8247 82.7191L15.8452 87.3129L19.9135 91.7229L24.8931 87.1291L20.8247 82.7191ZM15.8472 91.7248C18.6436 94.2997 22.0262 95.2279 25.2595 95.6309L26.0015 89.677C23.3345 89.3446 21.3899 88.6723 19.9115 87.311L15.8472 91.7248ZM25.2596 95.6309C28.335 96.0141 32.1539 96 36.407 96V90C31.9975 90 28.6196 90.0032 26.0014 89.677L25.2596 95.6309ZM11.093 72.4535C11.093 76.3499 11.0761 79.9229 11.5007 82.8125L17.437 81.9402C17.0912 79.5873 17.093 76.5335 17.093 72.4535H11.093ZM11.5 82.8076C11.9499 85.9047 13.0122 89.1143 15.8425 91.7205L19.9068 87.3066C18.4622 85.9765 17.777 84.2809 17.4377 81.9451L11.5 82.8076ZM19.9057 91.7214L24.89 87.1363L20.8278 82.7206L15.8436 87.3057L19.9057 91.7214ZM24.891 82.7215C24.88 82.7114 24.8444 82.6891 24.7746 82.5333C24.6841 82.3308 24.5407 81.9054 24.4172 81.0718L18.4819 81.9507C18.8335 84.3246 19.5243 85.9361 20.8268 87.1354L24.891 82.7215ZM24.4189 81.0831C24.1563 79.262 24.1395 76.715 24.1395 72.4535H18.1395C18.1395 76.5317 18.1416 79.5906 18.4803 81.9394L24.4189 81.0831ZM76.8605 72.4535C76.8605 76.716 76.8435 79.2598 76.5773 81.0817L82.5142 81.9494C82.8586 79.5929 82.8605 76.5306 82.8605 72.4535H76.8605ZM76.5772 81.082C76.4559 81.9123 76.3137 82.3339 76.2246 82.5328C76.1566 82.6846 76.1228 82.7046 76.1127 82.7138L80.1601 87.1431C81.4758 85.9408 82.1676 84.322 82.5142 81.9491L76.5772 81.082ZM76.1064 87.1373L81.0953 91.7224L85.1554 87.3047L80.1665 82.7196L76.1064 87.1373ZM85.1575 91.7205C87.9896 89.1127 89.0452 85.9017 89.4993 82.8127L83.5631 81.9401C83.2185 84.2839 82.536 85.9782 81.0932 87.3066L85.1575 91.7205ZM89.4993 82.8125C89.9239 79.9229 89.907 76.3499 89.907 72.4535H83.907C83.907 76.5335 83.9088 79.5873 83.563 81.9402L89.4993 82.8125ZM64.593 96C68.8461 96 72.665 96.0141 75.7404 95.6309L74.9986 89.677C72.3804 90.0032 69.0025 90 64.593 90V96ZM75.7362 95.6314C78.9752 95.2325 82.3635 94.2988 85.1599 91.7183L81.0908 87.3089C79.6124 88.6732 77.664 89.3487 75.0028 89.6764L75.7362 95.6314ZM85.1564 87.3057L80.1722 82.7206L76.11 87.1363L81.0943 91.7214L85.1564 87.3057ZM76.109 82.7215C76.0971 82.7325 76.0441 82.7908 75.8064 82.881C75.5248 82.9878 75.0026 83.1307 74.0562 83.2495L74.8037 89.2028C77.2599 88.8943 78.9061 88.3022 80.1732 87.1354L76.109 82.7215ZM74.0659 83.2483C72.0264 83.4977 69.1996 83.5116 64.593 83.5116V89.5116C69.0435 89.5116 72.305 89.5083 74.794 89.2039L74.0659 83.2483ZM27.0116 22.4651C27.8811 22.4651 28.7278 22.5226 29.553 22.6361L30.3705 16.6921C29.2666 16.5402 28.1465 16.4651 27.0116 16.4651V22.4651ZM32.924 20.1388L33.9528 13.7197L28.0284 12.7702L26.9996 19.1893L32.924 20.1388ZM31.3873 10.2713C29.9399 10.0782 28.4798 9.97976 27.0178 9.97675L27.0054 15.9767C28.2066 15.9792 29.4057 16.0601 30.5938 16.2186L31.3873 10.2713ZM50.5008 -3C44.7751 -3.00143 39.1718 -1.35215 34.4773 1.74491L37.7814 6.75321C41.4674 4.32149 45.9154 2.99885 50.4992 3L50.5008 -3ZM34.4773 1.74491C29.7803 4.84366 26.2123 9.24949 24.3235 14.3747L29.9534 16.4494C31.3775 12.5851 34.098 9.18325 37.7814 6.75321L34.4773 1.74491ZM26.2435 18.2754L32.9142 20.3604L34.7041 14.6336L28.0334 12.5486L26.2435 18.2754ZM36.6241 18.5343C37.5751 15.9538 39.3977 13.6669 41.8846 12.0267L38.5811 7.018C35.0803 9.32697 32.41 12.6179 30.9942 16.4596L36.6241 18.5343ZM41.8846 12.0267C44.3741 10.3847 47.387 9.48694 50.4986 9.48837L50.5014 3.48837C46.2477 3.48641 42.0793 4.71072 38.5811 7.018L41.8846 12.0267ZM24.3209 14.3819C23.3419 17.0597 22.8395 19.8718 22.8372 22.7068L28.8372 22.7118C28.839 20.5844 29.2156 18.4675 29.9561 16.4422L24.3209 14.3819ZM35.8837 22.7093C35.8837 21.2427 36.1467 19.8418 36.6286 18.5349L30.9991 16.4591C30.2784 18.4136 29.8837 20.5164 29.8837 22.7093H35.8837ZM34.7082 14.6334L28.0328 12.5485L26.2441 18.2756L32.9195 20.3606L34.7082 14.6334ZM73.9884 9.97674C72.5057 9.97674 71.0431 10.075 69.6016 10.2728L70.4173 16.2171C71.5815 16.0573 72.7714 15.9767 73.9884 15.9767V9.97674ZM67.0476 13.7218L68.0811 20.1409L74.0048 19.1872L72.9713 12.7681L67.0476 13.7218ZM71.4616 22.6347C72.2923 22.5176 73.1322 22.4609 73.9734 22.4651L74.0034 16.4652C72.8726 16.4595 71.7428 16.5358 70.6242 16.6935L71.4616 22.6347ZM50.5006 9.48837C53.6116 9.4877 56.6236 10.3858 59.1123 12.0277L62.4164 7.01948C58.9193 4.71225 54.7521 3.48746 50.4994 3.48837L50.5006 9.48837ZM59.1123 12.0277C61.5984 13.6679 63.4204 15.9544 64.3712 18.5343L70.0011 16.4596C68.5856 12.6187 65.9161 9.32838 62.4164 7.01948L59.1123 12.0277ZM76.6718 14.3747C74.7833 9.25029 71.2161 4.84501 66.5201 1.74632L63.2156 6.75432C66.8982 9.1843 69.6181 12.5857 71.0419 16.4494L76.6718 14.3747ZM66.5201 1.74632C61.8266 -1.35067 56.2245 -3.00043 50.4998 -3L50.5002 3C55.0834 2.99966 59.5304 4.32266 63.2156 6.75432L66.5201 1.74632ZM64.3714 18.5349C64.8533 19.8418 65.1163 21.2427 65.1163 22.7093H71.1163C71.1163 20.5164 70.7216 18.4136 70.0009 16.4591L64.3714 18.5349ZM78.1628 22.7093C78.1628 19.7964 77.6359 16.9934 76.6721 14.3756L71.0415 16.4485C71.769 18.4244 72.1628 20.5267 72.1628 22.7093H78.1628ZM24.1395 72.4535V57.6773H18.1395V72.4535H24.1395ZM21.1395 54.6773H14.093V60.6773H21.1395V54.6773ZM11.093 57.6773V72.4535H17.093V57.6773H11.093ZM20.1442 51.922C17.0905 50.6948 14.5302 48.6889 12.7507 46.1848L7.85987 49.6604C10.3361 53.1449 13.8371 55.8537 17.9069 57.4893L20.1442 51.922ZM12.7507 46.1848C10.9736 43.6841 10.0452 40.7879 10.0465 37.8502L4.04651 37.8474C4.04456 42.0665 5.38121 46.1724 7.85987 49.6604L12.7507 46.1848ZM-3 37.8482C-3.00107 43.3291 -1.26402 48.6692 1.96555 53.2126L6.85594 49.7363C4.32791 46.1799 2.99918 42.0491 3 37.8494L-3 37.8482ZM1.96555 53.2126C5.19269 57.7525 9.76254 61.2923 15.0883 63.4326L17.3256 57.8653C13.0158 56.1333 9.3864 53.2962 6.85594 49.7363L1.96555 53.2126ZM18.9176 61.9345L21.7362 55.9911L16.315 53.4201L13.4964 59.3635L18.9176 61.9345ZM76.8605 57.6773V72.4535H82.8605V57.6773H76.8605ZM89.907 72.4535V57.6773H83.907V72.4535H89.907ZM86.907 54.6773H79.8605V60.6773H86.907V54.6773ZM90.9535 37.8502C90.9548 40.7879 90.0264 43.6841 88.2493 46.1848L93.1401 49.6604C95.6188 46.1724 96.9554 42.0665 96.9535 37.8474L90.9535 37.8502ZM88.2493 46.1848C86.4698 48.6889 83.9095 50.6948 80.8558 51.922L83.0931 57.4893C87.1629 55.8537 90.6639 53.1449 93.1401 49.6604L88.2493 46.1848ZM79.2638 55.9911L82.0824 61.9345L87.5036 59.3635L84.685 53.4201L79.2638 55.9911ZM85.9117 63.4326C91.2374 61.2923 95.8073 57.7525 99.0344 53.2126L94.1441 49.7363C91.6136 53.2962 87.9842 56.1333 83.6744 57.8653L85.9117 63.4326ZM99.0344 53.2126C102.264 48.6692 104.001 43.3291 104 37.8482L98 37.8494C98.0008 42.0491 96.6721 46.1799 94.1441 49.7363L99.0344 53.2126ZM65.1163 22.7093V24.8721H71.1163V22.7093H65.1163ZM78.1628 24.8721V22.7093H72.1628V24.8721H78.1628ZM22.8372 22.7093V24.8721H28.8372V22.7093H22.8372ZM35.8837 24.8721V22.7093H29.8837V24.8721H35.8837Z" fill="#CBEAD2" mask="url(#path-1-inside-1_651_705)"/>
<path d="M17.6163 72.4536H83.3837H17.6163Z" fill="#CBEAD2"/>
<path d="M17.6163 72.4536H83.3837" stroke="#CBEAD2" stroke-width="3" stroke-linecap="round" stroke-linejoin="round"/>
<path d="M49.39 25.8345C46.304 22.3179 39.5885 24.2668 36.1156 28.2219C34.2442 30.3532 33.6954 32.632 34.0715 34.833C34.4493 37.0462 34.4134 39.5443 32.9684 41.0874L15.9171 59.3303C15.6342 59.6298 15.4073 59.9911 15.2498 60.3927C15.0923 60.7943 15.0075 61.2279 15.0005 61.6676C14.9934 62.1074 15.0643 62.5442 15.2088 62.9521C15.3534 63.3599 15.5686 63.7304 15.8417 64.0414C16.1148 64.3524 16.4401 64.5976 16.7982 64.7622C17.1563 64.9268 17.5399 65.0075 17.926 64.9995C18.3122 64.9914 18.6929 64.8949 19.0455 64.7155C19.3981 64.5362 19.7154 64.2777 19.9784 63.9556L35.9968 44.5364C37.3518 42.8929 39.5453 42.8498 41.4887 43.2802C43.4213 43.7085 45.4222 43.0855 47.2937 40.9522C50.7665 36.997 52.476 29.3511 49.39 25.8345Z" fill="#CBEAD2" stroke="#CBEAD2" stroke-width="2" stroke-linecap="round" stroke-linejoin="round"/>
<path d="M52.4596 53.3249C52.8266 52.8777 53.269 52.5195 53.7603 52.2715L53.7032 40.2226L50.6726 45.8771C50.6407 48.2308 50.6618 46.578 50.6618 46.578C50.6456 47.8159 50.1867 48.9903 49.3949 49.8346L33.9217 66.3103C33.6376 66.6106 33.4096 66.9731 33.2513 67.3761C33.093 67.7791 33.0077 68.2143 33.0005 68.6556C32.9933 69.097 33.0643 69.5355 33.2093 69.9449C33.3543 70.3543 33.5703 70.7262 33.8444 71.0384L37.9961 70.9503L52.4596 53.3249Z" fill="#CBEAD2"/>
<path d="M53.7603 52.2715C53.999 52.1511 54.2469 52.0579 54.5002 51.9929L60.5634 48.0352L57.3024 44.3216L53.7032 40.2226L53.7603 52.2715Z" fill="#CBEAD2"/>
<path d="M63.6011 37.1484L57.3024 44.3216M57.3024 44.3216L53.7032 40.2226M57.3024 44.3216L60.5634 48.0352M53.7032 40.2226L50.6726 45.8771M53.7032 40.2226C56.0456 42.8902 59.4823 46.8041 60.5634 48.0352M53.7032 40.2226L53.7603 52.2715M60.9017 48.4205C60.9017 48.4205 60.7797 48.2816 60.5634 48.0352M69 40.6059L61.4362 49.2198C59.975 50.8838 58.0026 51.8349 55.9365 51.8718L55.3193 51.8821C55.0429 51.8867 54.7685 51.924 54.5002 51.9929M53.7603 52.2715C53.269 52.5195 52.8266 52.8777 52.4596 53.3249M53.7603 52.2715C53.999 52.1511 54.2469 52.0579 54.5002 51.9929M52.4596 53.3249L37.9961 70.9503M52.4596 53.3249L54.5002 51.9929M37.9961 70.9503C37.7324 71.2739 37.4141 71.5336 37.0602 71.7138C36.7064 71.8941 36.3242 71.9912 35.9367 71.9994C35.5491 72.0077 35.1641 71.9268 34.8046 71.7616C34.4451 71.5965 34.1185 71.3505 33.8444 71.0384M37.9961 70.9503L33.8444 71.0384M33.8444 71.0384C33.5703 70.7262 33.3543 70.3543 33.2093 69.9449C33.0643 69.5355 32.9933 69.097 33.0005 68.6556C33.0077 68.2143 33.093 67.7791 33.2513 67.3761C33.4096 66.9731 33.6376 66.6106 33.9217 66.3103L49.3949 49.8346C50.1867 48.9903 50.6456 47.8159 50.6618 46.578C50.6618 46.578 50.6407 48.2308 50.6726 45.8771M50.6726 45.8771C50.7046 43.5235 51.5398 41.2764 53.0013 39.6119L60.5634 31M60.5634 48.0352L54.5002 51.9929" stroke="#CBEAD2" stroke-width="2" stroke-linecap="round" stroke-linejoin="round"/>
</svg>
